<svg width="180" height="45" viewBox="0 0 180 45" fill="none" xmlns="http://www.w3.org/2000/svg">
    <!-- Huella -->
    <ellipse cx="28" cy="23" rx="6" ry="8" fill="#57b952"/>
    <ellipse cx="20" cy="13" rx="2.5" ry="3.5" fill="#34495e"/>
    <ellipse cx="36" cy="13" rx="2.5" ry="3.5" fill="#34495e"/>
    <ellipse cx="25" cy="8" rx="2" ry="3" fill="#34495e"/>
    <ellipse cx="31" cy="8" rx="2" ry="3" fill="#34495e"/>
    <!-- Perro silueta -->
    <path d="M55 35 Q60 15 72 18 Q75 10 80 13 Q85 20 75 24 Q70 23 69 35 Z" fill="#9bb7d4" />
    <!-- Gato silueta -->
    <path d="M90 25 Q87 15 97 11 Q107 15 104 25 Q102 23 99 27 Q95 26 90 25 Z" fill="#f3d250"/>
    <!-- Texto DGMascotas -->
    <text x="50" y="40" font-family="Tahoma,Arial,sans-serif" font-size="21" font-weight="bold" fill="#34495e">DGMascotas</text>
  </svg>
  